<mxfile host="app.diagrams.net" modified="2023-04-26T13:51:01.714Z" agent="Mozilla/5.0 (Windows NT 10.0; Win64; x64) AppleWebKit/537.36 (KHTML, like Gecko) Chrome/112.0.0.0 Safari/537.36" etag="gAWNB9LxfqnvO8Eo4cia" version="21.2.2" type="github">
  <diagram name="第 1 页" id="ns-wLfMnNKUTH-arlsi7">
    <mxGraphModel dx="1434" dy="788" grid="1" gridSize="10" guides="1" tooltips="1" connect="1" arrows="1" fold="1" page="1" pageScale="1" pageWidth="827" pageHeight="1169" math="0" shadow="0">
      <root>
        <mxCell id="0" />
        <mxCell id="1" parent="0" />
        <mxCell id="zjmnMXRui6YM_5nLr5RC-10" value="" style="rounded=0;whiteSpace=wrap;html=1;" vertex="1" parent="1">
          <mxGeometry x="200" y="120" width="380" height="280" as="geometry" />
        </mxCell>
        <mxCell id="zjmnMXRui6YM_5nLr5RC-1" value="&lt;font style=&quot;font-size: 14px;&quot;&gt;基于零信任网络的分散式信息流控制模型&lt;/font&gt;" style="rounded=0;whiteSpace=wrap;html=1;" vertex="1" parent="1">
          <mxGeometry x="95" y="120" width="50" height="280" as="geometry" />
        </mxCell>
        <mxCell id="zjmnMXRui6YM_5nLr5RC-2" value="&lt;font style=&quot;font-size: 18px;&quot;&gt;研究产出&lt;/font&gt;" style="text;html=1;strokeColor=none;fillColor=none;align=center;verticalAlign=middle;whiteSpace=wrap;rounded=0;" vertex="1" parent="1">
          <mxGeometry x="80" y="80" width="80" height="30" as="geometry" />
        </mxCell>
        <mxCell id="zjmnMXRui6YM_5nLr5RC-5" value="&lt;font style=&quot;font-size: 18px;&quot;&gt;研究陈述结构&lt;/font&gt;" style="text;html=1;strokeColor=none;fillColor=none;align=center;verticalAlign=middle;whiteSpace=wrap;rounded=0;" vertex="1" parent="1">
          <mxGeometry x="315" y="80" width="140" height="30" as="geometry" />
        </mxCell>
        <mxCell id="zjmnMXRui6YM_5nLr5RC-6" value="&lt;font style=&quot;font-size: 14px;&quot;&gt;模型&lt;br&gt;构建&lt;/font&gt;" style="ellipse;whiteSpace=wrap;html=1;aspect=fixed;" vertex="1" parent="1">
          <mxGeometry x="355" y="225" width="70" height="70" as="geometry" />
        </mxCell>
        <mxCell id="zjmnMXRui6YM_5nLr5RC-7" value="&lt;font style=&quot;font-size: 14px;&quot;&gt;问题引入&lt;/font&gt;" style="rounded=0;whiteSpace=wrap;html=1;" vertex="1" parent="1">
          <mxGeometry x="240" y="150" width="80" height="40" as="geometry" />
        </mxCell>
        <mxCell id="zjmnMXRui6YM_5nLr5RC-8" value="&lt;span style=&quot;font-size: 14px;&quot;&gt;规则制定&lt;/span&gt;" style="rounded=0;whiteSpace=wrap;html=1;" vertex="1" parent="1">
          <mxGeometry x="455" y="240" width="80" height="40" as="geometry" />
        </mxCell>
        <mxCell id="zjmnMXRui6YM_5nLr5RC-9" value="&lt;span style=&quot;font-size: 14px;&quot;&gt;要素定义&lt;/span&gt;" style="rounded=0;whiteSpace=wrap;html=1;" vertex="1" parent="1">
          <mxGeometry x="455" y="150" width="80" height="40" as="geometry" />
        </mxCell>
        <mxCell id="zjmnMXRui6YM_5nLr5RC-11" value="&lt;span style=&quot;font-size: 14px;&quot;&gt;设计思想&lt;/span&gt;" style="rounded=0;whiteSpace=wrap;html=1;" vertex="1" parent="1">
          <mxGeometry x="240" y="240" width="80" height="40" as="geometry" />
        </mxCell>
        <mxCell id="zjmnMXRui6YM_5nLr5RC-12" value="" style="rounded=0;whiteSpace=wrap;html=1;" vertex="1" parent="1">
          <mxGeometry x="640" y="120" width="160" height="280" as="geometry" />
        </mxCell>
        <mxCell id="zjmnMXRui6YM_5nLr5RC-14" value="&lt;span style=&quot;font-size: 18px;&quot;&gt;关键技术问题&lt;/span&gt;" style="text;html=1;strokeColor=none;fillColor=none;align=center;verticalAlign=middle;whiteSpace=wrap;rounded=0;" vertex="1" parent="1">
          <mxGeometry x="650" y="80" width="140" height="30" as="geometry" />
        </mxCell>
        <mxCell id="zjmnMXRui6YM_5nLr5RC-15" value="分散式信息流控制规则扩展至零信任场景" style="rounded=0;whiteSpace=wrap;html=1;" vertex="1" parent="1">
          <mxGeometry x="655" y="295" width="130" height="70" as="geometry" />
        </mxCell>
        <mxCell id="zjmnMXRui6YM_5nLr5RC-16" value="引入群组构建动态&lt;br&gt;信息流控制" style="rounded=0;whiteSpace=wrap;html=1;" vertex="1" parent="1">
          <mxGeometry x="655" y="155" width="130" height="70" as="geometry" />
        </mxCell>
        <mxCell id="zjmnMXRui6YM_5nLr5RC-17" value="" style="rounded=0;whiteSpace=wrap;html=1;" vertex="1" parent="1">
          <mxGeometry x="880" y="120" width="400" height="280" as="geometry" />
        </mxCell>
        <mxCell id="zjmnMXRui6YM_5nLr5RC-18" value="&lt;span style=&quot;font-size: 18px;&quot;&gt;主要研究内容&lt;/span&gt;" style="text;html=1;strokeColor=none;fillColor=none;align=center;verticalAlign=middle;whiteSpace=wrap;rounded=0;" vertex="1" parent="1">
          <mxGeometry x="1010" y="80" width="140" height="30" as="geometry" />
        </mxCell>
        <mxCell id="zjmnMXRui6YM_5nLr5RC-19" value="&lt;span style=&quot;font-size: 14px;&quot;&gt;安全分析&lt;/span&gt;" style="rounded=0;whiteSpace=wrap;html=1;" vertex="1" parent="1">
          <mxGeometry x="455" y="330" width="80" height="40" as="geometry" />
        </mxCell>
        <mxCell id="zjmnMXRui6YM_5nLr5RC-20" value="&lt;span style=&quot;font-size: 14px;&quot;&gt;执行机制&lt;/span&gt;" style="rounded=0;whiteSpace=wrap;html=1;" vertex="1" parent="1">
          <mxGeometry x="240" y="330" width="80" height="40" as="geometry" />
        </mxCell>
      </root>
    </mxGraphModel>
  </diagram>
</mxfile>
